<svg xmlns="http://www.w3.org/2000/svg" viewBox="0 0 40 40" fill="none">
  <path d="M20 20 L20 1 A19 19 0 0 1 33.4 6.6 Z" fill="#dc2626"/>
  <path d="M20 20 L33.4 6.6 A19 19 0 0 1 39 20 Z" fill="#374151"/>
  <path d="M20 20 L39 20 A19 19 0 0 1 33.4 33.4 Z" fill="#dc2626"/>
  <path d="M20 20 L33.4 33.4 A19 19 0 0 1 20 39 Z" fill="#374151"/>
  <path d="M20 20 L20 39 A19 19 0 0 1 6.6 33.4 Z" fill="#dc2626"/>
  <path d="M20 20 L6.6 33.4 A19 19 0 0 1 1 20 Z" fill="#374151"/>
  <path d="M20 20 L1 20 A19 19 0 0 1 6.6 6.6 Z" fill="#dc2626"/>
  <path d="M20 20 L6.6 6.6 A19 19 0 0 1 20 1 Z" fill="#374151"/>
  <circle cx="20" cy="20" r="19" fill="none" stroke="#b45309" stroke-width="1.5"/>
  <circle cx="20" cy="20" r="17" stroke="#ef4444" stroke-width="3"/>
  <line x1="8" y1="8" x2="32" y2="32" stroke="#ef4444" stroke-width="3" stroke-linecap="round"/>
  <circle cx="20" cy="20" r="4" fill="#fff"/>
  <circle cx="20" cy="20" r="2" fill="#b45309"/>
</svg>
